<svg xmlns="http://www.w3.org/2000/svg" viewBox="0 0 35.25 22.25"><defs><style>.cls-1,.cls-6{fill:gray;}.cls-1,.cls-2,.cls-3,.cls-4,.cls-5{stroke:#666;stroke-miterlimit:10;stroke-width:0.25px;}.cls-2{fill:#999;}.cls-3{fill:#ccc;}.cls-4{fill:#b3b3b3;}.cls-5{fill:#4d4d4d;}</style></defs><g id="Слой_2" data-name="Слой 2"><g id="Транспорт"><ellipse class="cls-1" cx="18.13" cy="4.63" rx="13" ry="4.5"/><rect class="cls-2" x="23.13" y="17.13" width="8" height="3" rx="0.77"/><rect class="cls-3" x="3.13" y="3.13" width="30" height="14" rx="0.67"/><rect class="cls-2" x="5.12" y="17.13" width="8" height="3" rx="0.77"/><rect class="cls-4" x="1.12" y="17.12" width="34" height="2" rx="0.3"/><circle class="cls-5" cx="10.62" cy="20.63" r="1.5"/><circle class="cls-5" cx="7.63" cy="20.63" r="1.5"/><circle class="cls-5" cx="28.62" cy="20.63" r="1.5"/><circle class="cls-5" cx="25.63" cy="20.63" r="1.5"/><rect class="cls-3" x="0.13" y="5.13" width="8" height="5" rx="0.94"/><rect class="cls-6" x="21.94" y="12.59" width="5" height="1" rx="0.5" transform="translate(37.54 -11.35) rotate(90)"/><rect class="cls-6" x="23.94" y="12.59" width="5" height="1" rx="0.5" transform="translate(39.54 -13.35) rotate(90)"/><rect class="cls-6" x="25.94" y="12.59" width="5" height="1" rx="0.5" transform="translate(41.54 -15.35) rotate(90)"/><rect class="cls-6" x="27.94" y="12.59" width="5" height="1" rx="0.5" transform="translate(43.54 -17.35) rotate(90)"/></g></g></svg>