<svg xmlns="http://www.w3.org/2000/svg" viewBox="0 0 73.25 39.25"><defs><style>.f63cd073-61dd-4c21-aba0-cdebc34a5dc5{fill:#ccc;}.a618e376-b8f7-44b3-98db-34376dcbcbe8,.a9e4c76a-d992-408c-9b71-dbf35b4ce4e2,.ac53e144-d25e-4d28-9e48-642f79fcff4f,.adca717f-e735-4d0b-b323-3e6e937a79d8,.edc9667d-9b9b-4f2b-82d3-319802388e79,.f09fc1b4-4ef0-480f-b482-a42050e4fdae,.f63cd073-61dd-4c21-aba0-cdebc34a5dc5{stroke:#666;stroke-miterlimit:10;stroke-width:0.25px;}.a618e376-b8f7-44b3-98db-34376dcbcbe8{fill:#b3b3b3;}.ac53e144-d25e-4d28-9e48-642f79fcff4f{fill:#999;}.f09fc1b4-4ef0-480f-b482-a42050e4fdae{fill:#4d4d4d;}.adca717f-e735-4d0b-b323-3e6e937a79d8{fill:gray;}.a9e4c76a-d992-408c-9b71-dbf35b4ce4e2{fill:none;}.edc9667d-9b9b-4f2b-82d3-319802388e79{fill:#e6e6e6;}</style></defs><g id="fc32a0d0-53c5-408c-9c6f-e97ff20cb636" data-name="Слой 2"><g id="bdeb9e79-d33b-496d-8155-1355e9491b68" data-name="Транспорт"><g id="b80245d4-9350-427e-a7e0-4d27077129db" data-name="DKJskjd"><rect class="f63cd073-61dd-4c21-aba0-cdebc34a5dc5" x="7.13" y="19.13" width="19" height="6" rx="1.7"/><rect class="a618e376-b8f7-44b3-98db-34376dcbcbe8" x="7.13" y="23.13" width="19" height="6"/><rect class="a618e376-b8f7-44b3-98db-34376dcbcbe8" x="42.13" y="21.13" width="31" height="8" rx="2.72"/><rect class="f63cd073-61dd-4c21-aba0-cdebc34a5dc5" x="26.13" y="19.13" width="19" height="6" rx="1.7"/><rect class="ac53e144-d25e-4d28-9e48-642f79fcff4f" x="44.12" y="29.12" width="16" height="6" rx="0.77"/><rect class="ac53e144-d25e-4d28-9e48-642f79fcff4f" x="8.12" y="29.12" width="16" height="6" rx="0.77"/><rect class="a618e376-b8f7-44b3-98db-34376dcbcbe8" x="0.13" y="29.12" width="68" height="4" rx="0.3"/><circle class="f09fc1b4-4ef0-480f-b482-a42050e4fdae" cx="19.12" cy="36.12" r="3"/><circle class="f09fc1b4-4ef0-480f-b482-a42050e4fdae" cx="13.12" cy="36.12" r="3"/><circle class="f09fc1b4-4ef0-480f-b482-a42050e4fdae" cx="55.12" cy="36.12" r="3"/><circle class="f09fc1b4-4ef0-480f-b482-a42050e4fdae" cx="49.12" cy="36.12" r="3"/><line class="adca717f-e735-4d0b-b323-3e6e937a79d8" x1="64.13" y1="29.13" x2="53.13" y2="29.13"/><rect class="f63cd073-61dd-4c21-aba0-cdebc34a5dc5" x="4.13" y="13.13" width="16" height="10" rx="0.94"/><polyline class="a9e4c76a-d992-408c-9b71-dbf35b4ce4e2" points="26.13 23.13 26.13 29.13 7.13 29.13"/><rect class="a618e376-b8f7-44b3-98db-34376dcbcbe8" x="26.13" y="23.13" width="19" height="6"/><path class="f63cd073-61dd-4c21-aba0-cdebc34a5dc5" d="M46.13.13h-1V3l-.19,20.3H73.13v-8.7L65.27.13Z"/><polygon class="a618e376-b8f7-44b3-98db-34376dcbcbe8" points="44.89 29.13 44.94 23.32 44.85 23.32 44.89 29.13"/><rect class="edc9667d-9b9b-4f2b-82d3-319802388e79" x="49.13" y="5.13" width="6" height="11" rx="0.67"/><path class="edc9667d-9b9b-4f2b-82d3-319802388e79" d="M58.13,6.05V15.2a.93.93,0,0,0,.92.93H66.8a.93.93,0,0,0,.87-1.25L64.35,5.74a.93.93,0,0,0-.87-.61H59.05A.92.92,0,0,0,58.13,6.05Z"/></g></g></g></svg>