<svg xmlns="http://www.w3.org/2000/svg" viewBox="0 0 69.44 37.55"><defs><style>.a8ad7be9-fb81-4b42-9017-69a537840928{fill:#bdccd4;stroke-width:0.5px;}.a8ad7be9-fb81-4b42-9017-69a537840928,.fe233a39-2720-456b-88e4-4a2f0e3704fe{stroke:#666;}.a8ad7be9-fb81-4b42-9017-69a537840928,.f35d9788-5e19-4798-b7ac-4d859e8a1398,.f69c68fe-1ea8-454b-aa3b-75ac80a1ec61,.fe233a39-2720-456b-88e4-4a2f0e3704fe{stroke-miterlimit:10;}.fe233a39-2720-456b-88e4-4a2f0e3704fe{fill:#ccc;}.f35d9788-5e19-4798-b7ac-4d859e8a1398,.f69c68fe-1ea8-454b-aa3b-75ac80a1ec61,.fe233a39-2720-456b-88e4-4a2f0e3704fe{stroke-width:0.25px;}.f35d9788-5e19-4798-b7ac-4d859e8a1398{fill:#f15a24;}.f35d9788-5e19-4798-b7ac-4d859e8a1398,.f69c68fe-1ea8-454b-aa3b-75ac80a1ec61{stroke:#bf1818;}.f69c68fe-1ea8-454b-aa3b-75ac80a1ec61{fill:#f7931e;}</style></defs><g id="a7b4d10a-037f-4785-86d6-2d92ac4970d7" data-name="Слой 2"><g id="f9dff314-39f9-43f3-863a-b3a9d1fb788d" data-name="Транспорт"><g id="b0c131a9-93ac-4fc7-a31c-962e76f94e66" data-name="DKJskjd"><line class="a8ad7be9-fb81-4b42-9017-69a537840928" x1="10.12" y1="5.06" x2="6.21" y2="27.15"/><line class="a8ad7be9-fb81-4b42-9017-69a537840928" x1="61.89" y1="5.12" x2="66.44" y2="27.09"/><path class="fe233a39-2720-456b-88e4-4a2f0e3704fe" d="M6.12.13V5.06H9.76v6h2v14h4a2,2,0,0,0,2,2H54.49a2,2,0,0,0,2-2h4v-14h2v-6h3.63V.13Z"/><rect class="fe233a39-2720-456b-88e4-4a2f0e3704fe" x="0.13" y="3.06" width="16" height="10" rx="0.94"/><rect class="fe233a39-2720-456b-88e4-4a2f0e3704fe" x="18.12" y="3.06" width="2" height="12" rx="0.5" transform="translate(38.25 18.12) rotate(180)"/><rect class="fe233a39-2720-456b-88e4-4a2f0e3704fe" x="52.12" y="3.06" width="2" height="12" rx="0.5" transform="translate(106.25 18.12) rotate(180)"/><rect class="f35d9788-5e19-4798-b7ac-4d859e8a1398" x="45.32" y="27.42" width="16" height="6" rx="0.77"/><rect class="f35d9788-5e19-4798-b7ac-4d859e8a1398" x="9.32" y="27.42" width="16" height="6" rx="0.77"/><rect class="f35d9788-5e19-4798-b7ac-4d859e8a1398" x="1.32" y="27.42" width="68" height="4" rx="0.3"/><circle class="f69c68fe-1ea8-454b-aa3b-75ac80a1ec61" cx="20.32" cy="34.42" r="3"/><circle class="f69c68fe-1ea8-454b-aa3b-75ac80a1ec61" cx="14.32" cy="34.42" r="3"/><circle class="f69c68fe-1ea8-454b-aa3b-75ac80a1ec61" cx="56.32" cy="34.42" r="3"/><circle class="f69c68fe-1ea8-454b-aa3b-75ac80a1ec61" cx="50.32" cy="34.42" r="3"/></g></g></g></svg>