<svg xmlns="http://www.w3.org/2000/svg" viewBox="0 0 35.43 18.72"><defs><style>.cls-1{fill:#bdccd4;stroke-width:0.5px;}.cls-1,.cls-2,.cls-3,.cls-4,.cls-5{stroke:#666;stroke-miterlimit:10;}.cls-2{fill:#999;}.cls-2,.cls-3,.cls-4,.cls-5{stroke-width:0.25px;}.cls-3{fill:#b3b3b3;}.cls-4{fill:#4d4d4d;}.cls-5{fill:#ccc;}</style></defs><g id="Слой_2" data-name="Слой 2"><g id="Транспорт"><line class="cls-1" x1="5.13" y1="2.59" x2="3.17" y2="13.64"/><line class="cls-1" x1="31.01" y1="2.62" x2="33.28" y2="13.61"/><rect class="cls-2" x="23.31" y="13.59" width="8" height="3" rx="0.77"/><rect class="cls-2" x="5.31" y="13.59" width="8" height="3" rx="0.77"/><rect class="cls-3" x="1.31" y="13.59" width="34" height="2" rx="0.3"/><circle class="cls-4" cx="10.81" cy="17.09" r="1.5"/><circle class="cls-4" cx="7.81" cy="17.09" r="1.5"/><circle class="cls-4" cx="28.81" cy="17.09" r="1.5"/><circle class="cls-4" cx="25.81" cy="17.09" r="1.5"/><path class="cls-5" d="M3.13.13V2.59H4.94v3h1v7h2a1,1,0,0,0,1,1H27.31a1,1,0,0,0,1-1h2v-7h1v-3h1.82V.13Z"/><rect class="cls-5" x="0.13" y="1.59" width="8" height="5" rx="0.94"/><rect class="cls-5" x="9.12" y="1.59" width="1" height="6" rx="0.5" transform="translate(19.25 9.19) rotate(180)"/><rect class="cls-5" x="26.12" y="1.59" width="1" height="6" rx="0.5" transform="translate(53.25 9.19) rotate(180)"/></g></g></svg>