<svg xmlns="http://www.w3.org/2000/svg" viewBox="0 0 69.25 38.25"><defs><style>.eb372bba-42cc-4fce-b85c-460b168b1fa7{fill:#999;}.a30c469e-e0ae-47ad-a424-9c7a35049380,.a4948052-f2cd-417b-b9d3-540f1f47bf78,.a4cb1dda-3049-4f0d-9cd5-d2910729d450,.b83e1f59-c4ef-46c0-bf1a-563c82ceb1e7,.eb372bba-42cc-4fce-b85c-460b168b1fa7,.eede9151-1238-4a17-898c-c6df9e27fdf1,.f94c53f4-894d-47cb-ba79-f8858282312d{stroke:#666;stroke-miterlimit:10;stroke-width:0.25px;}.eede9151-1238-4a17-898c-c6df9e27fdf1{fill:#e6e6e6;}.a4cb1dda-3049-4f0d-9cd5-d2910729d450{fill:#ccc;}.a4948052-f2cd-417b-b9d3-540f1f47bf78{fill:#b3b3b3;}.b83e1f59-c4ef-46c0-bf1a-563c82ceb1e7{fill:#4d4d4d;}.f94c53f4-894d-47cb-ba79-f8858282312d{fill:none;}.a30c469e-e0ae-47ad-a424-9c7a35049380{fill:gray;}</style></defs><g id="e30b0025-95a3-4782-9750-760f5c3da02d" data-name="Слой 2"><g id="f5b68ba9-7f83-4f4e-9618-d98ece57c400" data-name="Транспорт"><g id="aa7a1074-97ac-48c8-9765-49bc5716e6d3" data-name="DKJskjd"><rect class="eb372bba-42cc-4fce-b85c-460b168b1fa7" x="45.12" y="28.12" width="16" height="6" rx="0.77"/><rect class="eede9151-1238-4a17-898c-c6df9e27fdf1" x="5.12" y="0.13" width="60" height="28" rx="0.67"/><rect class="a4cb1dda-3049-4f0d-9cd5-d2910729d450" x="5.12" y="5.13" width="60" height="23"/><rect class="eb372bba-42cc-4fce-b85c-460b168b1fa7" x="9.12" y="28.12" width="16" height="6" rx="0.77"/><rect class="a4948052-f2cd-417b-b9d3-540f1f47bf78" x="1.12" y="28.12" width="68" height="4" rx="0.3"/><circle class="b83e1f59-c4ef-46c0-bf1a-563c82ceb1e7" cx="20.12" cy="35.12" r="3"/><circle class="b83e1f59-c4ef-46c0-bf1a-563c82ceb1e7" cx="14.12" cy="35.12" r="3"/><circle class="b83e1f59-c4ef-46c0-bf1a-563c82ceb1e7" cx="56.12" cy="35.12" r="3"/><circle class="b83e1f59-c4ef-46c0-bf1a-563c82ceb1e7" cx="50.12" cy="35.12" r="3"/><path class="f94c53f4-894d-47cb-ba79-f8858282312d" d="M5.23,5.31,18.12,28.13"/><line class="f94c53f4-894d-47cb-ba79-f8858282312d" x1="18.13" y1="5.13" x2="18.13" y2="28.13"/><rect class="a4cb1dda-3049-4f0d-9cd5-d2910729d450" x="0.13" y="9.13" width="16" height="10" rx="0.94"/><line class="f94c53f4-894d-47cb-ba79-f8858282312d" x1="30.13" y1="5.13" x2="30.13" y2="28.13"/><line class="f94c53f4-894d-47cb-ba79-f8858282312d" x1="42.13" y1="5.13" x2="42.13" y2="28.13"/><line class="f94c53f4-894d-47cb-ba79-f8858282312d" x1="54.13" y1="5.13" x2="54.13" y2="28.13"/><line class="f94c53f4-894d-47cb-ba79-f8858282312d" x1="18.12" y1="5.12" x2="30.12" y2="28.13"/><line class="f94c53f4-894d-47cb-ba79-f8858282312d" x1="30.12" y1="28.13" x2="42.12" y2="5.12"/><path class="f94c53f4-894d-47cb-ba79-f8858282312d" d="M42.12,28.13l12-23"/><rect class="a30c469e-e0ae-47ad-a424-9c7a35049380" x="54.13" y="5.13" width="11" height="23"/></g></g></g></svg>