<svg xmlns="http://www.w3.org/2000/svg" viewBox="0 0 69.25 38.25"><defs><style>.a3b7823e-6929-4a27-8813-aafba0ce489b{fill:#999;}.a3b7823e-6929-4a27-8813-aafba0ce489b,.aef64173-8131-4c73-8124-45ae7c9ea85f,.bc481620-4aee-43e0-b610-c973d0bb416b,.f0c0df5e-c8af-4e8e-880e-e6a4120cef8e,.fd962015-3fb2-4883-a23e-68b6b44d0fac{stroke:#666;stroke-miterlimit:10;stroke-width:0.25px;}.f0c0df5e-c8af-4e8e-880e-e6a4120cef8e{fill:#ccc;}.aef64173-8131-4c73-8124-45ae7c9ea85f{fill:#b3b3b3;}.bc481620-4aee-43e0-b610-c973d0bb416b{fill:#4d4d4d;}.fd962015-3fb2-4883-a23e-68b6b44d0fac{fill:none;}</style></defs><g id="fb137fb9-542e-4002-9de5-a9343f51d129" data-name="Слой 2"><g id="b3c756dd-5c7f-4236-8e7b-fe7404906687" data-name="Транспорт"><g id="b76f00bd-d275-40e0-af32-b56915bf74d3" data-name="DKJskjd"><rect class="a3b7823e-6929-4a27-8813-aafba0ce489b" x="45.12" y="28.12" width="16" height="6" rx="0.77"/><rect class="f0c0df5e-c8af-4e8e-880e-e6a4120cef8e" x="5.12" y="0.13" width="60" height="28" rx="0.67"/><rect class="a3b7823e-6929-4a27-8813-aafba0ce489b" x="9.12" y="28.12" width="16" height="6" rx="0.77"/><rect class="aef64173-8131-4c73-8124-45ae7c9ea85f" x="1.12" y="28.12" width="68" height="4" rx="0.3"/><circle class="bc481620-4aee-43e0-b610-c973d0bb416b" cx="20.12" cy="35.12" r="3"/><circle class="bc481620-4aee-43e0-b610-c973d0bb416b" cx="14.12" cy="35.12" r="3"/><circle class="bc481620-4aee-43e0-b610-c973d0bb416b" cx="56.12" cy="35.12" r="3"/><circle class="bc481620-4aee-43e0-b610-c973d0bb416b" cx="50.12" cy="35.12" r="3"/><path class="fd962015-3fb2-4883-a23e-68b6b44d0fac" d="M5.23.35,18.12,28.13"/><line class="fd962015-3fb2-4883-a23e-68b6b44d0fac" x1="18.13" y1="0.13" x2="18.13" y2="28.13"/><rect class="f0c0df5e-c8af-4e8e-880e-e6a4120cef8e" x="0.13" y="9.13" width="16" height="10" rx="0.94"/><line class="fd962015-3fb2-4883-a23e-68b6b44d0fac" x1="30.13" y1="0.13" x2="30.13" y2="28.13"/><line class="fd962015-3fb2-4883-a23e-68b6b44d0fac" x1="42.13" y1="0.13" x2="42.13" y2="28.13"/><line class="fd962015-3fb2-4883-a23e-68b6b44d0fac" x1="54.13" y1="0.13" x2="54.13" y2="28.13"/><line class="fd962015-3fb2-4883-a23e-68b6b44d0fac" x1="18.12" y1="0.12" x2="30.12" y2="28.13"/><line class="fd962015-3fb2-4883-a23e-68b6b44d0fac" x1="42.12" y1="28.13" x2="54.12" y2="0.12"/><path class="fd962015-3fb2-4883-a23e-68b6b44d0fac" d="M54.12,28.13,65,.43"/></g></g></g></svg>