<svg xmlns="http://www.w3.org/2000/svg" viewBox="0 0 85.25 38.29"><defs><style>.ef3dea49-2305-4831-b275-b63827bf2b6e{fill:#999;}.ace6c3a6-0f8c-4705-a8e1-69af1d7ad7dc,.addc3b2c-6c54-407f-b47e-56ad8f6e066e,.b1c02d1c-52f9-4001-bc53-dac52d2877e8,.e4e27be9-39a4-429a-96c4-85db8250721c,.ef3dea49-2305-4831-b275-b63827bf2b6e{stroke:#666;stroke-miterlimit:10;stroke-width:0.25px;}.b1c02d1c-52f9-4001-bc53-dac52d2877e8{fill:#b3b3b3;}.addc3b2c-6c54-407f-b47e-56ad8f6e066e{fill:#4d4d4d;}.ace6c3a6-0f8c-4705-a8e1-69af1d7ad7dc{fill:#ccc;}.e4e27be9-39a4-429a-96c4-85db8250721c{fill:#e6e6e6;}</style></defs><g id="a4c3b60f-b9ee-4641-a8f1-50d681814088" data-name="Слой 2"><g id="f74db4f8-1dbf-404a-9603-72870132df3c" data-name="Транспорт"><g id="beb47a45-6825-479c-8e8d-f52f683080be" data-name="DKJskjd"><rect class="ef3dea49-2305-4831-b275-b63827bf2b6e" x="59.97" y="28.17" width="16" height="6" rx="0.77"/><rect class="ef3dea49-2305-4831-b275-b63827bf2b6e" x="23.97" y="28.17" width="16" height="6" rx="0.77"/><rect class="b1c02d1c-52f9-4001-bc53-dac52d2877e8" x="15.97" y="28.17" width="68" height="4" rx="0.3"/><circle class="addc3b2c-6c54-407f-b47e-56ad8f6e066e" cx="34.97" cy="35.17" r="3"/><circle class="addc3b2c-6c54-407f-b47e-56ad8f6e066e" cx="28.97" cy="35.17" r="3"/><circle class="addc3b2c-6c54-407f-b47e-56ad8f6e066e" cx="70.97" cy="35.17" r="3"/><circle class="addc3b2c-6c54-407f-b47e-56ad8f6e066e" cx="64.97" cy="35.17" r="3"/><path class="ace6c3a6-0f8c-4705-a8e1-69af1d7ad7dc" d="M82.08,12.13H63.3a2.85,2.85,0,0,1-1.54-.44,1.31,1.31,0,0,1-.63-1.06V1.85c0-.4.46-.72,1-.72H82.08c.58,0,1,.32,1,.72V11.4C83.13,11.8,82.66,12.13,82.08,12.13Z"/><rect class="e4e27be9-39a4-429a-96c4-85db8250721c" x="75.13" y="3.13" width="5" height="5" rx="0.9"/><path class="ace6c3a6-0f8c-4705-a8e1-69af1d7ad7dc" d="M74,20.37h0L49.13,4.13v-2H7.42A1.29,1.29,0,0,0,6.13,3.42V26.83a1.3,1.3,0,0,0,1.29,1.3H72.83a1.31,1.31,0,0,0,1.3-1.3V20.47Z"/><path class="e4e27be9-39a4-429a-96c4-85db8250721c" d="M81.13,12.12v7l4,3v6H73.4l-24.27-16h-7V.13h7v4l26,17,.06-9Z"/><rect class="ace6c3a6-0f8c-4705-a8e1-69af1d7ad7dc" x="0.13" y="4.13" width="16" height="10" rx="0.94"/></g></g></g></svg>