<svg xmlns="http://www.w3.org/2000/svg" viewBox="0 0 88.25 33.25"><defs><style>.a9913154-a01f-4981-b6b3-511d19cc1278{fill:#ccc;}.a3210c25-8f16-4e4b-9475-e4c71b444101,.a9913154-a01f-4981-b6b3-511d19cc1278,.aea2faaa-d2df-4354-ba7c-8a2a453a2262,.b170ae5c-158d-4177-b08a-c92c0ee5aaaa,.bb966f7a-426a-4f7f-89ef-9d971568009c,.bdb49f4a-5034-4999-89a2-27b0559f7f46,.ed6aa42b-0073-40dd-b582-6cbefef44922{stroke:#666;stroke-miterlimit:10;stroke-width:0.25px;}.bb966f7a-426a-4f7f-89ef-9d971568009c{fill:#999;}.bdb49f4a-5034-4999-89a2-27b0559f7f46{fill:#b3b3b3;}.ed6aa42b-0073-40dd-b582-6cbefef44922{fill:#4d4d4d;}.aea2faaa-d2df-4354-ba7c-8a2a453a2262{fill:gray;}.a3210c25-8f16-4e4b-9475-e4c71b444101{fill:none;}.b170ae5c-158d-4177-b08a-c92c0ee5aaaa{fill:#e6e6e6;}</style></defs><g id="adfb4eba-7b8a-4d11-bdf2-6498b5f2758c" data-name="Слой 2"><g id="a966de07-6dc2-41f9-81ae-ed9babf1b952" data-name="Транспорт"><g id="fcf71ec0-beaa-4a0c-81b3-502695b4d9c0" data-name="DKJskjd"><path class="a9913154-a01f-4981-b6b3-511d19cc1278" d="M74.79.13H66.46a.32.32,0,0,0-.33.33V6.79a.34.34,0,0,1-.34.34H59.46a.33.33,0,0,1-.33-.34V.46a.33.33,0,0,0-.34-.33H52.46a.32.32,0,0,0-.33.33V6.79a.34.34,0,0,1-.34.34H36.65a.33.33,0,0,1-.29-.48L39.28.6A.33.33,0,0,0,39,.13H32.32l-5.19,9V22.79a.33.33,0,0,0,.33.34H40.79a.34.34,0,0,0,.34-.34V19.46a.32.32,0,0,1,.33-.33H56.94a.31.31,0,0,1,.28.15L59.52,23a.32.32,0,0,0,.28.16h15a.34.34,0,0,0,.34-.34V.46A.33.33,0,0,0,74.79.13Z"/><rect class="bb966f7a-426a-4f7f-89ef-9d971568009c" x="58.12" y="23.12" width="16" height="6" rx="0.77"/><rect class="bb966f7a-426a-4f7f-89ef-9d971568009c" x="22.12" y="23.12" width="16" height="6" rx="0.77"/><rect class="bb966f7a-426a-4f7f-89ef-9d971568009c" x="2.13" y="23.12" width="10" height="6" rx="0.77"/><rect class="bdb49f4a-5034-4999-89a2-27b0559f7f46" x="14.12" y="23.12" width="68" height="4" rx="0.3"/><circle class="ed6aa42b-0073-40dd-b582-6cbefef44922" cx="33.12" cy="30.12" r="3"/><circle class="ed6aa42b-0073-40dd-b582-6cbefef44922" cx="27.12" cy="30.12" r="3"/><circle class="ed6aa42b-0073-40dd-b582-6cbefef44922" cx="7.12" cy="30.12" r="3"/><circle class="ed6aa42b-0073-40dd-b582-6cbefef44922" cx="69.12" cy="30.12" r="3"/><circle class="ed6aa42b-0073-40dd-b582-6cbefef44922" cx="63.12" cy="30.12" r="3"/><rect class="a9913154-a01f-4981-b6b3-511d19cc1278" x="11.13" y="9.13" width="16" height="10" rx="0.94"/><line class="aea2faaa-d2df-4354-ba7c-8a2a453a2262" x1="78.13" y1="23.13" x2="67.13" y2="23.13"/><line class="a3210c25-8f16-4e4b-9475-e4c71b444101" x1="40.13" y1="23.13" x2="21.12" y2="23.13"/><path class="a9913154-a01f-4981-b6b3-511d19cc1278" d="M75.67.13h-.46V3l-.08,20.11s0,0,0,0h13V14.5h0L84.51.13H75.67Z"/><path class="b170ae5c-158d-4177-b08a-c92c0ee5aaaa" d="M78.13,4.05V13.2c0,.51.3.93.67.93h5.65c.47,0,.79-.64.63-1.25L82.66,3.74A.72.72,0,0,0,82,3.13H78.8C78.43,3.13,78.13,3.54,78.13,4.05Z"/><line class="a9913154-a01f-4981-b6b3-511d19cc1278" x1="33.13" y1="0.13" x2="84.13" y2="0.13"/><rect class="bdb49f4a-5034-4999-89a2-27b0559f7f46" x="0.13" y="23.13" width="14" height="4"/></g></g></g></svg>