<svg xmlns="http://www.w3.org/2000/svg" xmlns:xlink="http://www.w3.org/1999/xlink" viewBox="0 0 255.57 39.69"><defs><style>.cls-1{fill:none;}.cls-2{clip-path:url(#clip-path);}.cls-3{fill:#fbb92f;}.cls-4{fill:#ee7918;}.cls-5{fill:#e42213;}</style><clipPath id="clip-path" transform="translate(0 0)"><rect id="SVGID" class="cls-1" width="255.57" height="39.7"/></clipPath></defs><g id="Слой_2" data-name="Слой 2"><g id="Транспорт"><g class="cls-2"><path class="cls-3" d="M39.93,0H0V7.94H39.93Z" transform="translate(0 0)"/><path class="cls-4" d="M39.93,15.87H0v7.94H39.93Z" transform="translate(0 0)"/><path class="cls-5" d="M39.93,31.75H0v7.93H39.93Z" transform="translate(0 0)"/><path d="M195.1,7.94l6.3,15.86H188.77ZM189,0,173.65,39.69h9.15l3-8h18.59l3,8h9.1L200.28,0Z" transform="translate(0 0)"/><path d="M55.9,0V39.69H88.66V31.76l-24.75,0V23.81H88.66V15.86H63.91V8l24.75,0V0Z" transform="translate(0 0)"/><path d="M222,39.65h21.63c6.45,0,11.91-4.35,11.91-11.77a8.6,8.6,0,0,0-4.87-8c4.27-2.47,4.87-5,4.87-8A12,12,0,0,0,243.66,0H222V8.07h21.25a3.91,3.91,0,1,1,0,7.81H226v7.9h17.27a3.9,3.9,0,1,1,0,7.8H222v8.07Z" transform="translate(0 0)"/><path d="M162.6,0h-22V39.69h8V23.78h14A11.89,11.89,0,1,0,162.6,0Zm-.37,15.88H148.56V8.07h13.67a3.91,3.91,0,1,1,0,7.81Z" transform="translate(0 0)"/><path d="M127.15,19.83c4.26-2.47,4.86-5,4.86-8A12,12,0,0,0,120.1,0H98.27V39.65h22.22c6.45,0,11.92-4.35,11.92-11.77C132.41,24.82,130.83,21.82,127.15,19.83ZM106.25,8.07h13.47a3.91,3.91,0,1,1,0,7.81H106.25Zm13.87,23.51H106.25v-7.8h13.87a3.9,3.9,0,1,1,0,7.8Z" transform="translate(0 0)"/></g></g></g></svg>